<mxfile host="app.diagrams.net" agent="Mozilla/5.0 (X11; Linux x86_64; rv:139.0) Gecko/20100101 Firefox/139.0" version="27.1.3" pages="3">
  <diagram name="Full Ideas" id="82XDhYnbbOEJZiGyT1DC">
    <mxGraphModel dx="1961" dy="1541" grid="1" gridSize="10" guides="1" tooltips="1" connect="1" arrows="1" fold="1" page="1" pageScale="1" pageWidth="850" pageHeight="1100" math="0" shadow="0">
      <root>
        <mxCell id="0" />
        <mxCell id="1" parent="0" />
        <mxCell id="dyRu1KngMcSD-DhJkfAF-1" value="BulletJournalApp" style="ellipse;whiteSpace=wrap;html=1;" parent="1" vertex="1">
          <mxGeometry x="470" y="80" width="120" height="80" as="geometry" />
        </mxCell>
        <mxCell id="dyRu1KngMcSD-DhJkfAF-64" style="rounded=0;orthogonalLoop=1;jettySize=auto;html=1;exitX=0.5;exitY=1;exitDx=0;exitDy=0;entryX=0.5;entryY=0;entryDx=0;entryDy=0;" parent="1" source="dyRu1KngMcSD-DhJkfAF-2" target="dyRu1KngMcSD-DhJkfAF-18" edge="1">
          <mxGeometry relative="1" as="geometry" />
        </mxCell>
        <mxCell id="dyRu1KngMcSD-DhJkfAF-2" value="Grade" style="ellipse;whiteSpace=wrap;html=1;" parent="1" vertex="1">
          <mxGeometry x="760" y="-170" width="90" height="50" as="geometry" />
        </mxCell>
        <mxCell id="dyRu1KngMcSD-DhJkfAF-70" style="rounded=0;orthogonalLoop=1;jettySize=auto;html=1;exitX=0.5;exitY=0;exitDx=0;exitDy=0;entryX=0.5;entryY=1;entryDx=0;entryDy=0;" parent="1" source="dyRu1KngMcSD-DhJkfAF-3" target="dyRu1KngMcSD-DhJkfAF-18" edge="1">
          <mxGeometry relative="1" as="geometry" />
        </mxCell>
        <mxCell id="dyRu1KngMcSD-DhJkfAF-3" value="Budget" style="ellipse;whiteSpace=wrap;html=1;" parent="1" vertex="1">
          <mxGeometry x="840" y="135" width="120" height="80" as="geometry" />
        </mxCell>
        <mxCell id="dyRu1KngMcSD-DhJkfAF-9" value="&lt;div&gt;Monthly&lt;/div&gt;(see Month Page)" style="ellipse;whiteSpace=wrap;html=1;" parent="1" vertex="1">
          <mxGeometry x="-200" y="-75" width="120" height="80" as="geometry" />
        </mxCell>
        <mxCell id="dyRu1KngMcSD-DhJkfAF-10" style="edgeStyle=orthogonalEdgeStyle;rounded=0;orthogonalLoop=1;jettySize=auto;html=1;exitX=0.5;exitY=1;exitDx=0;exitDy=0;" parent="1" edge="1">
          <mxGeometry relative="1" as="geometry">
            <mxPoint x="-240" y="190" as="sourcePoint" />
            <mxPoint x="-240" y="190" as="targetPoint" />
          </mxGeometry>
        </mxCell>
        <mxCell id="dyRu1KngMcSD-DhJkfAF-66" style="rounded=0;orthogonalLoop=1;jettySize=auto;html=1;exitX=0;exitY=1;exitDx=0;exitDy=0;entryX=0.924;entryY=0.266;entryDx=0;entryDy=0;entryPerimeter=0;" parent="1" source="dyRu1KngMcSD-DhJkfAF-11" target="dyRu1KngMcSD-DhJkfAF-18" edge="1">
          <mxGeometry relative="1" as="geometry" />
        </mxCell>
        <mxCell id="dyRu1KngMcSD-DhJkfAF-11" value="Skill" style="ellipse;whiteSpace=wrap;html=1;" parent="1" vertex="1">
          <mxGeometry x="1010" y="-130" width="100" height="60" as="geometry" />
        </mxCell>
        <mxCell id="dyRu1KngMcSD-DhJkfAF-12" value="work with different OS (ex: Windows, MacOS, Linux)" style="ellipse;whiteSpace=wrap;html=1;" parent="1" vertex="1">
          <mxGeometry x="330" y="700" width="120" height="80" as="geometry" />
        </mxCell>
        <mxCell id="dyRu1KngMcSD-DhJkfAF-13" value="Work across different devices with different screen size" style="ellipse;whiteSpace=wrap;html=1;" parent="1" vertex="1">
          <mxGeometry x="410" y="550" width="120" height="80" as="geometry" />
        </mxCell>
        <mxCell id="dyRu1KngMcSD-DhJkfAF-76" style="rounded=0;orthogonalLoop=1;jettySize=auto;html=1;exitX=0.5;exitY=0;exitDx=0;exitDy=0;entryX=0.5;entryY=1;entryDx=0;entryDy=0;" parent="1" source="dyRu1KngMcSD-DhJkfAF-14" target="dyRu1KngMcSD-DhJkfAF-16" edge="1">
          <mxGeometry relative="1" as="geometry" />
        </mxCell>
        <mxCell id="dyRu1KngMcSD-DhJkfAF-14" value="Option to not sync" style="ellipse;whiteSpace=wrap;html=1;" parent="1" vertex="1">
          <mxGeometry x="550" y="720" width="120" height="80" as="geometry" />
        </mxCell>
        <mxCell id="dyRu1KngMcSD-DhJkfAF-77" style="rounded=0;orthogonalLoop=1;jettySize=auto;html=1;exitX=0.5;exitY=0;exitDx=0;exitDy=0;entryX=0.5;entryY=1;entryDx=0;entryDy=0;" parent="1" source="dyRu1KngMcSD-DhJkfAF-15" target="dyRu1KngMcSD-DhJkfAF-16" edge="1">
          <mxGeometry relative="1" as="geometry" />
        </mxCell>
        <mxCell id="dyRu1KngMcSD-DhJkfAF-15" value="Option to sync with database or cloud storage" style="ellipse;whiteSpace=wrap;html=1;" parent="1" vertex="1">
          <mxGeometry x="720" y="720" width="120" height="80" as="geometry" />
        </mxCell>
        <mxCell id="dyRu1KngMcSD-DhJkfAF-16" value="Save in a file" style="ellipse;whiteSpace=wrap;html=1;" parent="1" vertex="1">
          <mxGeometry x="600" y="540" width="120" height="80" as="geometry" />
        </mxCell>
        <mxCell id="dyRu1KngMcSD-DhJkfAF-17" value="A way to send notification" style="ellipse;whiteSpace=wrap;html=1;" parent="1" vertex="1">
          <mxGeometry x="800" y="440" width="120" height="80" as="geometry" />
        </mxCell>
        <mxCell id="dyRu1KngMcSD-DhJkfAF-18" value="Trackers" style="ellipse;whiteSpace=wrap;html=1;" parent="1" vertex="1">
          <mxGeometry x="720" y="-40" width="170" height="100" as="geometry" />
        </mxCell>
        <mxCell id="dyRu1KngMcSD-DhJkfAF-65" style="rounded=0;orthogonalLoop=1;jettySize=auto;html=1;exitX=0;exitY=1;exitDx=0;exitDy=0;entryX=1;entryY=0;entryDx=0;entryDy=0;" parent="1" source="dyRu1KngMcSD-DhJkfAF-20" target="dyRu1KngMcSD-DhJkfAF-18" edge="1">
          <mxGeometry relative="1" as="geometry" />
        </mxCell>
        <mxCell id="dyRu1KngMcSD-DhJkfAF-20" value="Workout" style="ellipse;whiteSpace=wrap;html=1;" parent="1" vertex="1">
          <mxGeometry x="870" y="-180" width="130" height="60" as="geometry" />
        </mxCell>
        <mxCell id="dyRu1KngMcSD-DhJkfAF-69" style="rounded=0;orthogonalLoop=1;jettySize=auto;html=1;exitX=0;exitY=0;exitDx=0;exitDy=0;entryX=1;entryY=1;entryDx=0;entryDy=0;" parent="1" source="dyRu1KngMcSD-DhJkfAF-21" target="dyRu1KngMcSD-DhJkfAF-18" edge="1">
          <mxGeometry relative="1" as="geometry" />
        </mxCell>
        <mxCell id="dyRu1KngMcSD-DhJkfAF-21" value="Habit" style="ellipse;whiteSpace=wrap;html=1;" parent="1" vertex="1">
          <mxGeometry x="960" y="100" width="140" height="70" as="geometry" />
        </mxCell>
        <mxCell id="dyRu1KngMcSD-DhJkfAF-22" value="Sleep" style="ellipse;whiteSpace=wrap;html=1;" parent="1" vertex="1">
          <mxGeometry x="1040" y="25" width="130" height="60" as="geometry" />
        </mxCell>
        <mxCell id="dyRu1KngMcSD-DhJkfAF-23" value="Mood" style="ellipse;whiteSpace=wrap;html=1;" parent="1" vertex="1">
          <mxGeometry x="1060" y="-60" width="135" height="60" as="geometry" />
        </mxCell>
        <mxCell id="dyRu1KngMcSD-DhJkfAF-84" style="rounded=0;orthogonalLoop=1;jettySize=auto;html=1;exitX=1;exitY=0;exitDx=0;exitDy=0;entryX=0;entryY=1;entryDx=0;entryDy=0;" parent="1" source="dyRu1KngMcSD-DhJkfAF-24" target="dyRu1KngMcSD-DhJkfAF-27" edge="1">
          <mxGeometry relative="1" as="geometry" />
        </mxCell>
        <mxCell id="dyRu1KngMcSD-DhJkfAF-24" value="Hybrid App" style="ellipse;whiteSpace=wrap;html=1;" parent="1" vertex="1">
          <mxGeometry x="160" y="460" width="120" height="80" as="geometry" />
        </mxCell>
        <mxCell id="dyRu1KngMcSD-DhJkfAF-25" value="Desktop/Mobile App" style="ellipse;whiteSpace=wrap;html=1;" parent="1" vertex="1">
          <mxGeometry x="-10" y="530" width="120" height="80" as="geometry" />
        </mxCell>
        <mxCell id="dyRu1KngMcSD-DhJkfAF-26" value="Web App" style="ellipse;whiteSpace=wrap;html=1;" parent="1" vertex="1">
          <mxGeometry x="110" y="610" width="120" height="80" as="geometry" />
        </mxCell>
        <mxCell id="dyRu1KngMcSD-DhJkfAF-88" style="rounded=0;orthogonalLoop=1;jettySize=auto;html=1;exitX=0.5;exitY=0;exitDx=0;exitDy=0;entryX=0.5;entryY=1;entryDx=0;entryDy=0;" parent="1" source="dyRu1KngMcSD-DhJkfAF-27" target="dyRu1KngMcSD-DhJkfAF-1" edge="1">
          <mxGeometry relative="1" as="geometry" />
        </mxCell>
        <mxCell id="dyRu1KngMcSD-DhJkfAF-27" value="Functionality" style="ellipse;whiteSpace=wrap;html=1;" parent="1" vertex="1">
          <mxGeometry x="450" y="300" width="120" height="80" as="geometry" />
        </mxCell>
        <mxCell id="dyRu1KngMcSD-DhJkfAF-62" style="rounded=0;orthogonalLoop=1;jettySize=auto;html=1;exitX=0.5;exitY=1;exitDx=0;exitDy=0;entryX=0.5;entryY=0;entryDx=0;entryDy=0;" parent="1" source="dyRu1KngMcSD-DhJkfAF-28" target="dyRu1KngMcSD-DhJkfAF-30" edge="1">
          <mxGeometry relative="1" as="geometry" />
        </mxCell>
        <mxCell id="dyRu1KngMcSD-DhJkfAF-28" value="&lt;div&gt;Weekly&lt;/div&gt;(see Weekly page)" style="ellipse;whiteSpace=wrap;html=1;" parent="1" vertex="1">
          <mxGeometry x="240" y="-240" width="120" height="80" as="geometry" />
        </mxCell>
        <mxCell id="dyRu1KngMcSD-DhJkfAF-63" style="rounded=0;orthogonalLoop=1;jettySize=auto;html=1;exitX=0.5;exitY=1;exitDx=0;exitDy=0;entryX=0;entryY=0;entryDx=0;entryDy=0;" parent="1" source="dyRu1KngMcSD-DhJkfAF-30" target="dyRu1KngMcSD-DhJkfAF-1" edge="1">
          <mxGeometry relative="1" as="geometry" />
        </mxCell>
        <mxCell id="dyRu1KngMcSD-DhJkfAF-30" value="Schedules/Lists" style="ellipse;whiteSpace=wrap;html=1;" parent="1" vertex="1">
          <mxGeometry x="305" y="-60" width="120" height="80" as="geometry" />
        </mxCell>
        <mxCell id="dyRu1KngMcSD-DhJkfAF-58" style="rounded=0;orthogonalLoop=1;jettySize=auto;html=1;exitX=1;exitY=0.5;exitDx=0;exitDy=0;entryX=0;entryY=0.5;entryDx=0;entryDy=0;" parent="1" source="dyRu1KngMcSD-DhJkfAF-9" target="dyRu1KngMcSD-DhJkfAF-30" edge="1">
          <mxGeometry relative="1" as="geometry" />
        </mxCell>
        <mxCell id="dyRu1KngMcSD-DhJkfAF-67" style="rounded=0;orthogonalLoop=1;jettySize=auto;html=1;exitX=0;exitY=0.5;exitDx=0;exitDy=0;entryX=0.994;entryY=0.426;entryDx=0;entryDy=0;entryPerimeter=0;" parent="1" source="dyRu1KngMcSD-DhJkfAF-23" target="dyRu1KngMcSD-DhJkfAF-18" edge="1">
          <mxGeometry relative="1" as="geometry" />
        </mxCell>
        <mxCell id="dyRu1KngMcSD-DhJkfAF-68" style="rounded=0;orthogonalLoop=1;jettySize=auto;html=1;exitX=0;exitY=0.5;exitDx=0;exitDy=0;entryX=0.971;entryY=0.626;entryDx=0;entryDy=0;entryPerimeter=0;" parent="1" source="dyRu1KngMcSD-DhJkfAF-22" target="dyRu1KngMcSD-DhJkfAF-18" edge="1">
          <mxGeometry relative="1" as="geometry" />
        </mxCell>
        <mxCell id="dyRu1KngMcSD-DhJkfAF-72" style="rounded=0;orthogonalLoop=1;jettySize=auto;html=1;exitX=0;exitY=1;exitDx=0;exitDy=0;entryX=0.938;entryY=0.283;entryDx=0;entryDy=0;entryPerimeter=0;" parent="1" source="dyRu1KngMcSD-DhJkfAF-18" target="dyRu1KngMcSD-DhJkfAF-1" edge="1">
          <mxGeometry relative="1" as="geometry" />
        </mxCell>
        <mxCell id="dyRu1KngMcSD-DhJkfAF-73" style="rounded=0;orthogonalLoop=1;jettySize=auto;html=1;exitX=1;exitY=0;exitDx=0;exitDy=0;entryX=0.108;entryY=0.743;entryDx=0;entryDy=0;entryPerimeter=0;" parent="1" source="dyRu1KngMcSD-DhJkfAF-25" target="dyRu1KngMcSD-DhJkfAF-24" edge="1">
          <mxGeometry relative="1" as="geometry" />
        </mxCell>
        <mxCell id="dyRu1KngMcSD-DhJkfAF-74" style="rounded=0;orthogonalLoop=1;jettySize=auto;html=1;exitX=0.5;exitY=0;exitDx=0;exitDy=0;entryX=0.415;entryY=1.033;entryDx=0;entryDy=0;entryPerimeter=0;" parent="1" source="dyRu1KngMcSD-DhJkfAF-26" target="dyRu1KngMcSD-DhJkfAF-24" edge="1">
          <mxGeometry relative="1" as="geometry" />
        </mxCell>
        <mxCell id="dyRu1KngMcSD-DhJkfAF-75" style="rounded=0;orthogonalLoop=1;jettySize=auto;html=1;exitX=0.5;exitY=0;exitDx=0;exitDy=0;entryX=0.418;entryY=0.998;entryDx=0;entryDy=0;entryPerimeter=0;" parent="1" source="dyRu1KngMcSD-DhJkfAF-12" target="dyRu1KngMcSD-DhJkfAF-13" edge="1">
          <mxGeometry relative="1" as="geometry" />
        </mxCell>
        <mxCell id="dyRu1KngMcSD-DhJkfAF-83" style="rounded=0;orthogonalLoop=1;jettySize=auto;html=1;exitX=0;exitY=1;exitDx=0;exitDy=0;" parent="1" source="dyRu1KngMcSD-DhJkfAF-78" target="dyRu1KngMcSD-DhJkfAF-17" edge="1">
          <mxGeometry relative="1" as="geometry" />
        </mxCell>
        <mxCell id="dyRu1KngMcSD-DhJkfAF-78" value="Text" style="ellipse;whiteSpace=wrap;html=1;" parent="1" vertex="1">
          <mxGeometry x="980" y="390" width="120" height="80" as="geometry" />
        </mxCell>
        <mxCell id="dyRu1KngMcSD-DhJkfAF-79" value="Email" style="ellipse;whiteSpace=wrap;html=1;" parent="1" vertex="1">
          <mxGeometry x="980" y="530" width="120" height="80" as="geometry" />
        </mxCell>
        <mxCell id="dyRu1KngMcSD-DhJkfAF-81" style="rounded=0;orthogonalLoop=1;jettySize=auto;html=1;exitX=0.5;exitY=0;exitDx=0;exitDy=0;entryX=0.5;entryY=1;entryDx=0;entryDy=0;" parent="1" source="dyRu1KngMcSD-DhJkfAF-80" target="dyRu1KngMcSD-DhJkfAF-17" edge="1">
          <mxGeometry relative="1" as="geometry" />
        </mxCell>
        <mxCell id="dyRu1KngMcSD-DhJkfAF-80" value="Push" style="ellipse;whiteSpace=wrap;html=1;" parent="1" vertex="1">
          <mxGeometry x="850" y="590" width="120" height="80" as="geometry" />
        </mxCell>
        <mxCell id="dyRu1KngMcSD-DhJkfAF-82" style="rounded=0;orthogonalLoop=1;jettySize=auto;html=1;exitX=0;exitY=0;exitDx=0;exitDy=0;entryX=0.768;entryY=0.913;entryDx=0;entryDy=0;entryPerimeter=0;" parent="1" source="dyRu1KngMcSD-DhJkfAF-79" target="dyRu1KngMcSD-DhJkfAF-17" edge="1">
          <mxGeometry relative="1" as="geometry" />
        </mxCell>
        <mxCell id="dyRu1KngMcSD-DhJkfAF-85" style="rounded=0;orthogonalLoop=1;jettySize=auto;html=1;exitX=0.5;exitY=0;exitDx=0;exitDy=0;entryX=0.395;entryY=0.978;entryDx=0;entryDy=0;entryPerimeter=0;" parent="1" source="dyRu1KngMcSD-DhJkfAF-13" target="dyRu1KngMcSD-DhJkfAF-27" edge="1">
          <mxGeometry relative="1" as="geometry" />
        </mxCell>
        <mxCell id="dyRu1KngMcSD-DhJkfAF-86" style="rounded=0;orthogonalLoop=1;jettySize=auto;html=1;exitX=0.5;exitY=0;exitDx=0;exitDy=0;entryX=0.635;entryY=1.008;entryDx=0;entryDy=0;entryPerimeter=0;" parent="1" source="dyRu1KngMcSD-DhJkfAF-16" target="dyRu1KngMcSD-DhJkfAF-27" edge="1">
          <mxGeometry relative="1" as="geometry" />
        </mxCell>
        <mxCell id="dyRu1KngMcSD-DhJkfAF-87" style="rounded=0;orthogonalLoop=1;jettySize=auto;html=1;exitX=0;exitY=0;exitDx=0;exitDy=0;entryX=0.935;entryY=0.758;entryDx=0;entryDy=0;entryPerimeter=0;" parent="1" source="dyRu1KngMcSD-DhJkfAF-17" target="dyRu1KngMcSD-DhJkfAF-27" edge="1">
          <mxGeometry relative="1" as="geometry" />
        </mxCell>
      </root>
    </mxGraphModel>
  </diagram>
  <diagram id="bHpGHSBi8YZLySC4tOxV" name="Month">
    <mxGraphModel dx="2437" dy="1730" grid="1" gridSize="10" guides="1" tooltips="1" connect="1" arrows="1" fold="1" page="1" pageScale="1" pageWidth="850" pageHeight="1100" math="0" shadow="0">
      <root>
        <mxCell id="0" />
        <mxCell id="1" parent="0" />
        <mxCell id="zn5MyHEq61Jdhc2_yuj5-1" value="Monthly" style="ellipse;whiteSpace=wrap;html=1;" vertex="1" parent="1">
          <mxGeometry x="380" y="190" width="120" height="80" as="geometry" />
        </mxCell>
        <mxCell id="k5EVyeFGAkpIpsBEVzDD-10" style="edgeStyle=none;rounded=0;orthogonalLoop=1;jettySize=auto;html=1;exitX=0.5;exitY=0;exitDx=0;exitDy=0;entryX=0.5;entryY=1;entryDx=0;entryDy=0;" edge="1" parent="1" source="k5EVyeFGAkpIpsBEVzDD-1" target="zn5MyHEq61Jdhc2_yuj5-1">
          <mxGeometry relative="1" as="geometry" />
        </mxCell>
        <mxCell id="k5EVyeFGAkpIpsBEVzDD-1" value="Calendar" style="ellipse;whiteSpace=wrap;html=1;" vertex="1" parent="1">
          <mxGeometry x="425" y="470" width="120" height="90" as="geometry" />
        </mxCell>
        <mxCell id="k5EVyeFGAkpIpsBEVzDD-2" value="To Do List" style="ellipse;whiteSpace=wrap;html=1;" vertex="1" parent="1">
          <mxGeometry x="200" y="470" width="120" height="80" as="geometry" />
        </mxCell>
        <mxCell id="k5EVyeFGAkpIpsBEVzDD-12" style="edgeStyle=none;rounded=0;orthogonalLoop=1;jettySize=auto;html=1;exitX=1;exitY=0;exitDx=0;exitDy=0;entryX=0;entryY=1;entryDx=0;entryDy=0;" edge="1" parent="1" source="k5EVyeFGAkpIpsBEVzDD-3" target="zn5MyHEq61Jdhc2_yuj5-1">
          <mxGeometry relative="1" as="geometry" />
        </mxCell>
        <mxCell id="k5EVyeFGAkpIpsBEVzDD-3" value="Grocery List" style="ellipse;whiteSpace=wrap;html=1;" vertex="1" parent="1">
          <mxGeometry x="10" y="340" width="120" height="80" as="geometry" />
        </mxCell>
        <mxCell id="k5EVyeFGAkpIpsBEVzDD-4" value="Shopping List" style="ellipse;whiteSpace=wrap;html=1;" vertex="1" parent="1">
          <mxGeometry x="-20" y="190" width="120" height="80" as="geometry" />
        </mxCell>
        <mxCell id="k5EVyeFGAkpIpsBEVzDD-5" value="Side Project List" style="ellipse;whiteSpace=wrap;html=1;" vertex="1" parent="1">
          <mxGeometry x="20" y="40" width="120" height="80" as="geometry" />
        </mxCell>
        <mxCell id="k5EVyeFGAkpIpsBEVzDD-15" style="edgeStyle=none;rounded=0;orthogonalLoop=1;jettySize=auto;html=1;exitX=1;exitY=1;exitDx=0;exitDy=0;entryX=0;entryY=0;entryDx=0;entryDy=0;" edge="1" parent="1" source="k5EVyeFGAkpIpsBEVzDD-6" target="zn5MyHEq61Jdhc2_yuj5-1">
          <mxGeometry relative="1" as="geometry" />
        </mxCell>
        <mxCell id="k5EVyeFGAkpIpsBEVzDD-6" value="goals" style="ellipse;whiteSpace=wrap;html=1;" vertex="1" parent="1">
          <mxGeometry x="190" y="-90" width="120" height="90" as="geometry" />
        </mxCell>
        <mxCell id="k5EVyeFGAkpIpsBEVzDD-7" value="&lt;div&gt;Budget&lt;/div&gt;" style="ellipse;whiteSpace=wrap;html=1;" vertex="1" parent="1">
          <mxGeometry x="410" y="-130" width="120" height="90" as="geometry" />
        </mxCell>
        <mxCell id="k5EVyeFGAkpIpsBEVzDD-9" value="Meal Plan" style="ellipse;whiteSpace=wrap;html=1;" vertex="1" parent="1">
          <mxGeometry x="630" y="410" width="120" height="90" as="geometry" />
        </mxCell>
        <mxCell id="k5EVyeFGAkpIpsBEVzDD-11" style="edgeStyle=none;rounded=0;orthogonalLoop=1;jettySize=auto;html=1;exitX=0.5;exitY=0;exitDx=0;exitDy=0;entryX=0.287;entryY=0.946;entryDx=0;entryDy=0;entryPerimeter=0;" edge="1" parent="1" source="k5EVyeFGAkpIpsBEVzDD-2" target="zn5MyHEq61Jdhc2_yuj5-1">
          <mxGeometry relative="1" as="geometry" />
        </mxCell>
        <mxCell id="k5EVyeFGAkpIpsBEVzDD-13" style="edgeStyle=none;rounded=0;orthogonalLoop=1;jettySize=auto;html=1;exitX=1;exitY=0.5;exitDx=0;exitDy=0;entryX=0.013;entryY=0.661;entryDx=0;entryDy=0;entryPerimeter=0;" edge="1" parent="1" source="k5EVyeFGAkpIpsBEVzDD-4" target="zn5MyHEq61Jdhc2_yuj5-1">
          <mxGeometry relative="1" as="geometry" />
        </mxCell>
        <mxCell id="k5EVyeFGAkpIpsBEVzDD-14" style="edgeStyle=none;rounded=0;orthogonalLoop=1;jettySize=auto;html=1;exitX=1;exitY=1;exitDx=0;exitDy=0;entryX=-0.011;entryY=0.375;entryDx=0;entryDy=0;entryPerimeter=0;" edge="1" parent="1" source="k5EVyeFGAkpIpsBEVzDD-5" target="zn5MyHEq61Jdhc2_yuj5-1">
          <mxGeometry relative="1" as="geometry" />
        </mxCell>
        <mxCell id="k5EVyeFGAkpIpsBEVzDD-16" style="edgeStyle=none;rounded=0;orthogonalLoop=1;jettySize=auto;html=1;exitX=0.5;exitY=1;exitDx=0;exitDy=0;entryX=0.394;entryY=0.036;entryDx=0;entryDy=0;entryPerimeter=0;" edge="1" parent="1" source="k5EVyeFGAkpIpsBEVzDD-7" target="zn5MyHEq61Jdhc2_yuj5-1">
          <mxGeometry relative="1" as="geometry" />
        </mxCell>
        <mxCell id="k5EVyeFGAkpIpsBEVzDD-18" style="edgeStyle=none;rounded=0;orthogonalLoop=1;jettySize=auto;html=1;exitX=0;exitY=0;exitDx=0;exitDy=0;entryX=1;entryY=1;entryDx=0;entryDy=0;" edge="1" parent="1" source="k5EVyeFGAkpIpsBEVzDD-9" target="zn5MyHEq61Jdhc2_yuj5-1">
          <mxGeometry relative="1" as="geometry" />
        </mxCell>
      </root>
    </mxGraphModel>
  </diagram>
  <diagram id="lS4gJLhHMNNQzTkX1Giw" name="Weekly">
    <mxGraphModel dx="1111" dy="1541" grid="1" gridSize="10" guides="1" tooltips="1" connect="1" arrows="1" fold="1" page="1" pageScale="1" pageWidth="850" pageHeight="1100" math="0" shadow="0">
      <root>
        <mxCell id="0" />
        <mxCell id="1" parent="0" />
        <mxCell id="4bjl_S4j4Ys_qPLpIN78-1" value="Weekly" style="ellipse;whiteSpace=wrap;html=1;" vertex="1" parent="1">
          <mxGeometry x="350" y="240" width="120" height="80" as="geometry" />
        </mxCell>
        <mxCell id="4bjl_S4j4Ys_qPLpIN78-2" value="goals" style="ellipse;whiteSpace=wrap;html=1;" vertex="1" parent="1">
          <mxGeometry x="90" y="100" width="120" height="90" as="geometry" />
        </mxCell>
        <mxCell id="4bjl_S4j4Ys_qPLpIN78-3" value="Calendar" style="ellipse;whiteSpace=wrap;html=1;" vertex="1" parent="1">
          <mxGeometry x="270" y="-40" width="120" height="90" as="geometry" />
        </mxCell>
        <mxCell id="4bjl_S4j4Ys_qPLpIN78-4" value="To Do" style="ellipse;whiteSpace=wrap;html=1;" vertex="1" parent="1">
          <mxGeometry x="500" y="-30" width="120" height="90" as="geometry" />
        </mxCell>
        <mxCell id="Z-HVwZFV2i-emm2jts16-1" value="Meal Plan" style="ellipse;whiteSpace=wrap;html=1;" vertex="1" parent="1">
          <mxGeometry x="670" y="130" width="120" height="90" as="geometry" />
        </mxCell>
        <mxCell id="Z-HVwZFV2i-emm2jts16-2" style="edgeStyle=none;rounded=0;orthogonalLoop=1;jettySize=auto;html=1;exitX=1;exitY=1;exitDx=0;exitDy=0;entryX=0.092;entryY=0.188;entryDx=0;entryDy=0;entryPerimeter=0;" edge="1" parent="1" source="4bjl_S4j4Ys_qPLpIN78-2" target="4bjl_S4j4Ys_qPLpIN78-1">
          <mxGeometry relative="1" as="geometry" />
        </mxCell>
        <mxCell id="Z-HVwZFV2i-emm2jts16-3" style="edgeStyle=none;rounded=0;orthogonalLoop=1;jettySize=auto;html=1;exitX=0.5;exitY=1;exitDx=0;exitDy=0;entryX=0.317;entryY=0.05;entryDx=0;entryDy=0;entryPerimeter=0;" edge="1" parent="1" source="4bjl_S4j4Ys_qPLpIN78-3" target="4bjl_S4j4Ys_qPLpIN78-1">
          <mxGeometry relative="1" as="geometry" />
        </mxCell>
        <mxCell id="Z-HVwZFV2i-emm2jts16-4" style="edgeStyle=none;rounded=0;orthogonalLoop=1;jettySize=auto;html=1;exitX=0.5;exitY=1;exitDx=0;exitDy=0;entryX=0.683;entryY=0.025;entryDx=0;entryDy=0;entryPerimeter=0;" edge="1" parent="1" source="4bjl_S4j4Ys_qPLpIN78-4" target="4bjl_S4j4Ys_qPLpIN78-1">
          <mxGeometry relative="1" as="geometry" />
        </mxCell>
        <mxCell id="Z-HVwZFV2i-emm2jts16-5" style="edgeStyle=none;rounded=0;orthogonalLoop=1;jettySize=auto;html=1;exitX=0;exitY=1;exitDx=0;exitDy=0;entryX=0.967;entryY=0.363;entryDx=0;entryDy=0;entryPerimeter=0;" edge="1" parent="1" source="Z-HVwZFV2i-emm2jts16-1" target="4bjl_S4j4Ys_qPLpIN78-1">
          <mxGeometry relative="1" as="geometry" />
        </mxCell>
      </root>
    </mxGraphModel>
  </diagram>
</mxfile>
